<svg xmlns="http://www.w3.org/2000/svg" viewBox="0 0 163 35"><path fill-rule="evenodd" d="M155.076.706L163 .66s-1.935 1.985-3.64 4.34c-1.704 2.356-9.604 12.953-9.604 12.953s-4.123 5.818-6.426 8.29c-1.176 1.26-5.852 5.905-11.954 7.732-5.858 1.754-13.175.718-13.175.718s-3.96-.577-4.467-1.478c-.506-.9 0-.97.437-1.04.438-.068 2.902.347 4.354.532.71.09 3.655.65 7.022.377 3.524-.287 7.484-1.425 8.71-2.04 2.395-1.2 6.01-3.486 7.554-6.303 1.543-2.816 1.957-4.594 1.566-5.77-.392-1.178-3.41-6.49-4.768-8.867-1.36-2.378-3.672-5.98-4.606-7.11-.24-.29-.785-.87-1.28-1.32-.6-.545-1.14-.944-1.14-.944l6.335-.21s1.313 0 1.773.786c.46.785 7.717 13.853 7.717 13.853s.345.67.714.646c.37-.023.738-.416 1.014-.854.277-.44 4.376-7.135 4.376-7.135s2.465-4.063 2.488-5.033c.023-.97-.277-1.524-.39-1.663-.117-.137-.532-.414-.532-.414zm-35.427 16.51c0-.12-.08-.356-.405-.356-.566 0-3.48 2.014-10.925 2.014-9.63 0-13.918-4.66-13.918-8.806 0-6.318 8.335-10.07 21.12-10.07 1.457 0 2.833.08 4.21.16 5.56.312 5.987.763 5.987.763v13.057c0 1.5 0 3.2 1.455 4.264l-7.2.475-.326-1.5zm.08-12.952c0-1.856-.89-2.843-5.016-2.843-8.983 0-13.84 3.318-13.84 7.82 0 3.593 3.563 7.58 11.897 7.58 4.695 0 6.96-1.737 6.96-3.948V4.264zM74.83 18.914c-3.236 0-5.988-.317-8.98-.87-.89-.158-1.378-.316-1.378-.868 0-.948.325-1.896.405-2.883 2.51 1.975 4.53 3.2 9.873 3.2 4.773 0 7.606-1.107 7.606-3.358 0-4.817-16.022-4.028-16.022-9.87 0-2.962 4.693-4.226 12.3-4.226 2.427 0 4.936.197 7.363.473.243.04 1.052.118 1.052.356 0 .71-.08 1.854-.162 2.683-3.156-1.934-4.775-2.33-8.496-2.33-3.157 0-6.07.71-6.07 2.41 0 4.698 16.83 4.145 16.83 9.634 0 3.75-7.443 5.646-14.322 5.646zM59.134 2.79c-2.346 0-4.774-1.022-6.554-1.022-3.4 0-3.64 2.64-3.64 3.826v8.274c0 1.46 0 3.598 1.454 4.703h-8.9c1.456-1.104 1.456-3.24 1.456-4.702V4.686c0-3.79 6.15-4.54 12.948-4.54 1.86 0 5.745.117 5.745 1.42 0 .75-1.134 1.224-2.51 1.224zM15.617 18.913C4.45 18.913 0 14.45 0 10.147 0 4.027 6.96.04 19.096.04c11.167 0 15.618 4.46 15.618 8.765 0 6.12-6.96 10.108-19.097 10.108zm.81-17.452c-7.607 0-9.63 3.673-9.63 6.95 0 4.62 2.913 9.082 11.49 9.082 7.606 0 9.63-3.673 9.63-6.95 0-4.62-2.913-9.08-11.49-9.08z"/></svg>